<?xml version="1.0" encoding="UTF-8" standalone="no"?>
<!-- Created with Inkscape (http://www.inkscape.org/) -->

<svg
   xmlns:osb="http://www.openswatchbook.org/uri/2009/osb"
   xmlns:dc="http://purl.org/dc/elements/1.1/"
   xmlns:cc="http://creativecommons.org/ns#"
   xmlns:rdf="http://www.w3.org/1999/02/22-rdf-syntax-ns#"
   xmlns:svg="http://www.w3.org/2000/svg"
   xmlns="http://www.w3.org/2000/svg"
   xmlns:xlink="http://www.w3.org/1999/xlink"
   xmlns:sodipodi="http://sodipodi.sourceforge.net/DTD/sodipodi-0.dtd"
   xmlns:inkscape="http://www.inkscape.org/namespaces/inkscape"
   width="3000"
   height="2200"
   id="svg2"
   version="1.1"
   inkscape:version="0.48.2 r9819"
   sodipodi:docname="background.svg">
  <defs
     id="defs4">
    <linearGradient
       inkscape:collect="always"
       id="linearGradient5370">
      <stop
         style="stop-color:#006699;stop-opacity:1;"
         offset="0"
         id="stop5372" />
      <stop
         style="stop-color:#006699;stop-opacity:0;"
         offset="1"
         id="stop5374" />
    </linearGradient>
    <linearGradient
       id="linearGradient5256"
       osb:paint="solid">
      <stop
         style="stop-color:#3366ff;stop-opacity:1;"
         offset="0"
         id="stop5258" />
    </linearGradient>
    <linearGradient
       id="linearGradient3807"
       osb:paint="solid">
      <stop
         style="stop-color:#000000;stop-opacity:1;"
         offset="0"
         id="stop3809" />
    </linearGradient>
    <linearGradient
       id="linearGradient3009">
      <stop
         style="stop-color:#6699cc;stop-opacity:1;"
         offset="0"
         id="stop3011" />
      <stop
         style="stop-color:#6699cc;stop-opacity:0;"
         offset="1"
         id="stop3013" />
    </linearGradient>
    <mask
       maskUnits="userSpaceOnUse"
       id="mask3025">
      <path
         sodipodi:type="star"
         style="fill:#ffffff;fill-opacity:1"
         id="path3027"
         sodipodi:sides="15"
         sodipodi:cx="-91.428574"
         sodipodi:cy="2.8571429"
         sodipodi:r1="2294.3142"
         sodipodi:r2="154.8562"
         sodipodi:arg1="0.64848239"
         sodipodi:arg2="0.67632072"
         inkscape:flatsided="false"
         inkscape:rounded="0"
         inkscape:randomized="0"
         d="M 1737.1429,1388.5715 29.340829,99.785955 1015.4338,2012.5172 -20.524734,140.52736 102.33813,2288.9744 -82.650215,157.46433 -844.26154,2170.1412 -146.29355,147.66832 -1660.6896,1676.5649 -200.45024,112.83314 -2205.7781,893.58932 -235.75609,58.982107 -2385.2764,-43.401951 -246.1064,-4.5734394 -2168.1476,-972.3946 -229.71151,-66.844171 -1591.9351,-1732.7574 -189.40624,-117.06291 -756.27152,-2193.0166 -132.15975,-146.54639 194.3495,-2273.5893 -67.870461,-150.19663 1095.5569,-1960.5438 -7.6545882,-127.38249 1791.5237,-1308.0084 38.076002,-82.048734 2161.911,-428.81241 61.414075,-22.033979 2142.6754,525.02314 58.324265,42.284677 z"
         transform="translate(974.28571,-267.6378)"
         inkscape:transform-center-x="5.2946348"
         inkscape:transform-center-y="-5.3962802" />
    </mask>
    <linearGradient
       inkscape:collect="always"
       xlink:href="#linearGradient5370"
       id="linearGradient5376"
       x1="1648.1185"
       y1="1971.7218"
       x2="283.46637"
       y2="155.53021"
       gradientUnits="userSpaceOnUse" />
  </defs>
  <sodipodi:namedview
     id="base"
     pagecolor="#ffffff"
     bordercolor="#666666"
     borderopacity="1.0"
     inkscape:pageopacity="0.0"
     inkscape:pageshadow="2"
     inkscape:zoom="0.39863636"
     inkscape:cx="1500"
     inkscape:cy="1100"
     inkscape:document-units="px"
     inkscape:current-layer="layer1"
     showgrid="false"
     inkscape:window-width="1920"
     inkscape:window-height="1056"
     inkscape:window-x="0"
     inkscape:window-y="24"
     inkscape:window-maximized="1" />
  <metadata
     id="metadata7">
    <rdf:RDF>
      <cc:Work
         rdf:about="">
        <dc:format>image/svg+xml</dc:format>
        <dc:type
           rdf:resource="http://purl.org/dc/dcmitype/StillImage" />
        <dc:title></dc:title>
      </cc:Work>
    </rdf:RDF>
  </metadata>
  <g
     inkscape:groupmode="layer"
     id="layer2"
     inkscape:label="background"
     style="display:inline">
    <rect
       style="fill:#3399cc;fill-opacity:1"
       id="rect2986"
       width="3000"
       height="2199.6511"
       x="-2.7247839e-07"
       y="0.34859079"
       ry="0" />
  </g>
  <g
     inkscape:groupmode="layer"
     id="layer3"
     inkscape:label="Star"
     style="display:inline;opacity:0.16460905">
    <g
       id="g5494"
       transform="translate(7.9952174,-197.69746)">
      <g
         id="g5308">
        <path
           style="fill:none;stroke:#000000;stroke-width:1px;stroke-linecap:butt;stroke-linejoin:miter;stroke-opacity:1"
           d="M 1106.4285,881.07143 308.57143,-388.57143 -57.142859,-180 z"
           id="path5266"
           inkscape:connector-curvature="0"
           sodipodi:nodetypes="cccc" />
        <path
           sodipodi:nodetypes="cccc"
           inkscape:connector-curvature="0"
           id="path5268"
           d="M 1094.1613,903.23186 -71.30336,457.18006 -68.10351,833.61508 z"
           style="fill:none;stroke:#000000;stroke-width:1px;stroke-linecap:butt;stroke-linejoin:miter;stroke-opacity:1" />
        <path
           sodipodi:nodetypes="cccc"
           inkscape:connector-curvature="0"
           id="path5270"
           d="m 1124.9778,867.45442 -30.0875,-1508.43883 -420.99698,-3.2443 z"
           style="fill:none;stroke:#000000;stroke-width:1px;stroke-linecap:butt;stroke-linejoin:miter;stroke-opacity:1" />
        <path
           style="fill:none;stroke:#000000;stroke-width:1px;stroke-linecap:butt;stroke-linejoin:miter;stroke-opacity:1"
           d="M 1147.8072,868.40155 2267.1563,-140.413 1989.9924,-457.31868 z"
           id="path5272"
           inkscape:connector-curvature="0"
           sodipodi:nodetypes="cccc" />
        <path
           sodipodi:nodetypes="cccc"
           inkscape:connector-curvature="0"
           id="path5274"
           d="M 1166.6623,885.05774 3112.7428,393.52806 2998.418,-82.756811 z"
           style="fill:none;stroke:#000000;stroke-width:1px;stroke-linecap:butt;stroke-linejoin:miter;stroke-opacity:1"
           inkscape:transform-center-x="142.19862"
           inkscape:transform-center-y="113.88711" />
        <path
           inkscape:transform-center-y="220.30766"
           inkscape:transform-center-x="229.33118"
           style="fill:none;stroke:#000000;stroke-width:1px;stroke-linecap:butt;stroke-linejoin:miter;stroke-opacity:1"
           d="M 1168.2852,907.59083 3126.9679,1353.2317 3241.1405,876.91032 z"
           id="path5276"
           inkscape:connector-curvature="0"
           sodipodi:nodetypes="cccc" />
        <path
           sodipodi:nodetypes="cccc"
           inkscape:connector-curvature="0"
           id="path5278"
           d="M 1161.2928,930.49224 2891.4034,2410.903 3263.5396,2073.756 z"
           style="fill:none;stroke:#000000;stroke-width:1px;stroke-linecap:butt;stroke-linejoin:miter;stroke-opacity:1"
           inkscape:transform-center-x="205.55645"
           inkscape:transform-center-y="77.719975" />
        <path
           inkscape:transform-center-y="-126.61551"
           inkscape:transform-center-x="122.52482"
           style="fill:none;stroke:#000000;stroke-width:1px;stroke-linecap:butt;stroke-linejoin:miter;stroke-opacity:1"
           d="m 1140.7304,938.26281 275.0536,1336.91289 605.0956,-12.2558 z"
           id="path5280"
           inkscape:connector-curvature="0"
           sodipodi:nodetypes="cccc" />
        <path
           sodipodi:nodetypes="cccc"
           inkscape:connector-curvature="0"
           id="path5282"
           d="M 1118.3902,940.47208 673.61306,2293.4817 1146.7784,2307.8266 z"
           style="fill:none;stroke:#000000;stroke-width:1px;stroke-linecap:butt;stroke-linejoin:miter;stroke-opacity:1"
           inkscape:transform-center-x="202.9555"
           inkscape:transform-center-y="-229.00688" />
        <path
           inkscape:transform-center-y="-169.4918"
           inkscape:transform-center-x="-27.501797"
           style="fill:none;stroke:#000000;stroke-width:1px;stroke-linecap:butt;stroke-linejoin:miter;stroke-opacity:1"
           d="M 1102.0204,929.24738 -78.571433,1715.0878 -55.245034,2199.1529 z"
           id="path5284"
           inkscape:connector-curvature="0"
           sodipodi:nodetypes="cccc" />
      </g>
      <g
         id="g5428">
        <path
           style="fill:#006699;fill-opacity:1"
           d="M 528.4493,867.95524 C 239.82162,850.49364 3.0378961,835.57304 2.2632533,834.7984 1.4886107,834.02376 1.1448054,755.51063 1.4992417,660.32479 L 2.1436716,487.2596 531.44812,689.8935 c 291.11744,111.44865 533.25538,204.27736 538.08438,206.28606 l 8.7799,3.65215 -12.5427,-0.064 c -6.8985,-0.0351 -248.69272,-14.3508 -537.3204,-31.81243 l 0,-7e-5 z"
           id="path5340"
           inkscape:connector-curvature="0" />
        <path
           style="fill:#006699;fill-opacity:1"
           d="M 630.53592,444.43999 C 375.98062,212.09 163.27172,18.111155 157.84949,13.375866 l -9.8586,-8.6096174 203.01709,0.093904 203.01711,0.093904 L 824.34343,435.47302 C 973.0185,672.25844 1094.3697,866.19504 1094.0128,866.44323 1093.6558,866.6914 885.09122,676.78994 630.53592,444.43999 z"
           id="path5342"
           inkscape:connector-curvature="0" />
        <path
           style="fill:#006699;fill-opacity:1"
           d="M 995.33138,426.68965 869.84212,6.0205245 987.64045,5.368575 c 64.78905,-0.3585722 118.00385,-0.3585722 118.25495,0 0.9683,1.3823141 16.8278,840.087615 15.9032,841.012215 -0.5379,0.53788 -57.4481,-188.32314 -126.46722,-419.69114 l 0,0 z"
           id="path5344"
           inkscape:connector-curvature="0" />
        <path
           style="fill:#006699;fill-opacity:1"
           d="m 1181.1052,819.41847 c 11.6442,-18.28107 132.6921,-208.99486 268.9954,-423.80842 L 1697.9247,5.0399358 1899.236,4.9030921 c 110.7212,-0.075264 201.3113,0.3852378 201.3113,1.0233371 0,1.4615694 -937.7988,846.7303508 -939.4204,846.7303508 -0.6561,0 8.3342,-14.95724 19.9783,-33.23831 z"
           id="path5346"
           inkscape:connector-curvature="0" />
        <path
           style="fill:#006699;fill-opacity:1"
           d="m 1192.8477,874.00145 c 0.6777,-0.67776 370.8459,-196.53109 822.5959,-435.22961 l 821.3637,-433.997338 80.9008,-0.00413 80.9008,-0.00413 0,208.209798 c 0,114.5154 -0.6635,208.20981 -1.4744,208.20981 -0.811,0 -405.8968,102.16078 -900.1909,227.02395 -494.294,124.86317 -900.2041,227.02394 -902.0223,227.02394 -1.8183,0 -2.7514,-0.55454 -2.0736,-1.2323 l 0,0 z"
           id="path5348"
           inkscape:connector-curvature="0" />
        <path
           style="fill:#006699;fill-opacity:1"
           d="m 2087.55,1115.1836 -904.7874,-206.0844 40.5913,-0.64126 c 196.6906,-3.10734 1739.5455,-25.69853 1755.0691,-25.69853 l 20.1859,0 0,219.49829 c 0,174.0564 -0.6492,219.4478 -3.1357,219.2543 -1.7246,-0.1342 -410.29,-92.9819 -907.9232,-206.3284 z"
           id="path5350"
           inkscape:connector-curvature="0" />
        <path
           style="fill:#006699;fill-opacity:1"
           d="M 1917.3583,1574.8619 C 1515.7238,1231.174 1187.5808,949.50772 1188.1517,948.93689 c 0.5708,-0.57083 407.875,220.19571 905.1204,490.59241 l 904.0825,491.6302 0.649,134.2948 0.6489,134.2948 -175.5248,0 -175.5248,0 -730.2446,-624.8872 z"
           id="path5352"
           inkscape:connector-curvature="0" />
        <path
           style="fill:#006699;fill-opacity:1"
           d="m 1273.5814,1575.734 c -70.5838,-343.1942 -128.0498,-624.28278 -127.7023,-624.64134 0.6433,-0.66367 827.2942,1242.57684 828.8225,1246.50644 0.4616,1.1867 -127.6697,2.1443 -285.9749,2.1372 l -286.8111,-0.013 -128.3342,-623.9894 z"
           id="path5354"
           inkscape:connector-curvature="0" />
        <path
           style="fill:#006699;fill-opacity:1"
           d="m 751.96805,2061.1517 c 25.07027,-76.2287 117.22014,-356.68 204.77747,-623.2252 87.55738,-266.5452 159.48378,-482.71962 159.83638,-480.38765 0.6566,4.34168 25.6986,1200.25375 25.6986,1227.26905 l 0,14.9412 -217.94738,0 -217.94738,0 45.58231,-138.5974 z"
           id="path5356"
           inkscape:connector-curvature="0" />
        <path
           style="fill:#006699;fill-opacity:1"
           d="M 0.93575421,1898.0958 0.98211275,1664.1733 542.78296,1303.6925 c 297.99048,-198.2644 541.80084,-359.96046 541.80084,-359.32451 0,1.60294 -1081.0526787,1187.65021 -1082.5137233,1187.65021 -0.6493745,0 -1.15981966,-105.2651 -1.13432249,-233.9224 z"
           id="path5358"
           inkscape:connector-curvature="0" />
      </g>
    </g>
  </g>
  <g
     inkscape:label="Glimm"
     inkscape:groupmode="layer"
     id="layer1"
     transform="translate(0,1147.6378)"
     sodipodi:insensitive="true">
    <rect
       style="fill:url(#linearGradient5376);fill-opacity:1"
       id="rect5360"
       width="2995.2109"
       height="2192.4744"
       x="2.5085518"
       y="2.5085518"
       transform="translate(0,-1147.6378)" />
  </g>
</svg>
